<svg xmlns="http://www.w3.org/2000/svg" width="123" height="28" fill="none">
    <path fill="#fff" d="M45.625 13.43h3.15v5.22a8.213 8.213 0 0 1-2.484 1.188 9.885 9.885 0 0 1-2.808.414c-1.32 0-2.508-.276-3.564-.828a6.307 6.307 0 0 1-2.484-2.34c-.6-.996-.9-2.124-.9-3.384 0-1.26.3-2.388.9-3.384a6.153 6.153 0 0 1 2.502-2.322c1.068-.564 2.274-.846 3.618-.846 1.176 0 2.232.198 3.168.594a6.107 6.107 0 0 1 2.34 1.71l-2.268 2.052c-.852-.936-1.872-1.404-3.06-1.404-1.08 0-1.95.33-2.61.99-.66.648-.99 1.518-.99 2.61 0 .696.15 1.32.45 1.872.3.54.72.966 1.26 1.278.54.3 1.158.45 1.854.45.684 0 1.326-.138 1.926-.414V13.43Zm11.764 6.822c-1.332 0-2.532-.282-3.6-.846a6.438 6.438 0 0 1-2.502-2.34c-.6-.996-.9-2.118-.9-3.366 0-1.248.3-2.37.9-3.366a6.438 6.438 0 0 1 2.502-2.34c1.068-.564 2.268-.846 3.6-.846 1.332 0 2.526.282 3.582.846 1.068.564 1.902 1.344 2.502 2.34.612.996.918 2.118.918 3.366 0 1.248-.306 2.37-.918 3.366-.6.996-1.434 1.776-2.502 2.34-1.056.564-2.25.846-3.582.846Zm0-2.952c.636 0 1.212-.15 1.728-.45.516-.3.924-.72 1.224-1.26.3-.552.45-1.182.45-1.89s-.15-1.332-.45-1.872a3.222 3.222 0 0 0-1.224-1.278 3.375 3.375 0 0 0-1.728-.45c-.636 0-1.212.15-1.728.45-.516.3-.924.726-1.224 1.278-.3.54-.45 1.164-.45 1.872 0 .708.15 1.338.45 1.89.3.54.708.96 1.224 1.26.516.3 1.092.45 1.728.45Z"/>
    <path fill="#FF662D" d="M78.246 7.4V20h-3.564v-4.914h-4.86V20h-3.564V7.4h3.564v4.734h4.86V7.4h3.564Zm7.248 12.762c-1.044 0-1.987-.216-2.826-.648a4.955 4.955 0 0 1-1.98-1.8c-.469-.768-.703-1.638-.703-2.61 0-.96.234-1.824.703-2.592a4.856 4.856 0 0 1 1.962-1.782c.84-.432 1.787-.648 2.843-.648s2.005.216 2.845.648a4.707 4.707 0 0 1 1.962 1.782c.468.756.701 1.62.701 2.592s-.234 1.842-.702 2.61c-.468.768-1.122 1.368-1.962 1.8-.84.432-1.788.648-2.844.648Zm0-2.718c.6 0 1.091-.204 1.475-.612.385-.42.577-.996.577-1.728 0-.72-.193-1.284-.577-1.692-.383-.408-.875-.612-1.475-.612-.6 0-1.093.204-1.477.612-.383.408-.575.972-.575 1.692 0 .732.192 1.308.576 1.728.383.408.876.612 1.475.612Zm19.8-7.362c1.2 0 2.154.36 2.862 1.08.72.72 1.08 1.806 1.08 3.258V20h-3.42v-5.022c0-.684-.132-1.188-.396-1.512-.252-.324-.612-.486-1.08-.486-.516 0-.93.18-1.242.54-.312.36-.468.906-.468 1.638V20h-3.42v-5.022c0-1.332-.492-1.998-1.476-1.998-.528 0-.948.18-1.26.54-.312.36-.468.906-.468 1.638V20h-3.42v-9.756h3.258v1.026c.36-.396.786-.69 1.278-.882a4.325 4.325 0 0 1 1.638-.306c.684 0 1.296.126 1.836.378s.978.636 1.314 1.152c.384-.492.87-.87 1.458-1.134a4.648 4.648 0 0 1 1.926-.396Zm16.213 5.058c0 .024-.018.306-.054.846h-7.092c.144.504.42.894.828 1.17.42.264.942.396 1.566.396.468 0 .87-.066 1.206-.198a3.542 3.542 0 0 0 1.044-.648l1.8 1.872c-.948 1.056-2.334 1.584-4.158 1.584-1.14 0-2.142-.216-3.006-.648-.864-.432-1.536-1.032-2.016-1.8-.468-.768-.702-1.638-.702-2.61 0-.96.228-1.818.684-2.574a4.885 4.885 0 0 1 1.926-1.8c.816-.432 1.734-.648 2.754-.648.972 0 1.854.204 2.646.612a4.452 4.452 0 0 1 1.872 1.746c.468.756.702 1.656.702 2.7Zm-5.202-2.628c-.528 0-.972.15-1.332.45-.348.3-.57.708-.666 1.224h3.996c-.096-.516-.324-.924-.684-1.224-.348-.3-.786-.45-1.314-.45ZM25.455 0H0v25.455h25.455z"/>
    <path fill="#0F1D2D" d="M19.727 5.09h-14v20.365h14z"/>
    <path fill="#FF662D" d="M19.727 5.09 9.545 7.637V28l10.182-2.545V5.09Z"/>
</svg>